<svg fill="#fff" id="Layer_1" data-name="Layer 1" xmlns="http://www.w3.org/2000/svg" viewBox="0 0 185.39 139.56"><polygon points="115.28 74.44 115.28 86.28 120.83 86.28 120.83 98.48 115.28 98.48 115.28 109.95 133.77 109.95 133.77 97.37 143.02 109.95 162.25 109.95 162.25 98.11 156.15 98.11 156.15 86.09 162.43 86.09 162.43 74.26 142.46 74.26 142.46 85.72 133.59 74.26 115.28 74.44"/><path fill="#fff" d="M120.55,115.77V98H81v12.21h5.55v12.2H81v11.46h39.57V117.25H109.09v4.81H108v-12.2h1.11v5.91ZM99.1,122.06v-4.81l7,4.81Zm0-7.4v-4.8h7Z" transform="translate(-6.56 -23.76)"/><polygon points="72.76 74.26 72.76 86.09 67.69 86.09 67.69 98.3 72.76 98.3 72.76 109.95 54.95 109.95 54.95 98.3 47.91 110.13 40.61 98.3 40.61 109.95 22.43 109.95 22.43 98.3 28.12 98.3 28.12 86.09 22.43 86.09 22.43 74.26 41.1 74.26 47.6 86.09 55.08 74.26 72.76 74.26"/><polygon points="144.19 37.9 162.43 37.9 162.43 49.45 171.31 37.9 183.97 37.9 183.97 50.28 178.27 50.28 173.54 55.98 177.44 60.71 183.97 60.71 183.97 73.51 171.31 73.51 162.43 61.27 162.43 73.51 142.38 73.51 142.38 61.27 149.06 61.27 149.06 49.72 144.19 49.72 144.19 37.9"/><polygon points="112.05 73.51 91.74 73.51 91.74 60.99 95.08 60.99 90.91 49.72 86.74 60.71 89.76 60.85 89.76 73.51 38.6 73.51 38.6 60.85 44.45 60.85 44.45 49.72 38.6 49.72 38.6 37.9 62.67 37.9 62.67 49.86 56.97 49.86 56.97 60.71 61.28 60.71 61.28 52.78 72.76 52.78 72.76 59.18 77.55 50 71.57 50 71.57 37.9 100.65 37.9 112.05 68.22 112.05 73.51"/><path fill="#fff" d="M137.88,80.53h13.17s-1,17.57-19,17.57-18.57-19.77-18.57-19.77,1.13-16.67,18.78-16.67,17.57,17,17.57,17H138.07a5.54,5.54,0,0,0-5.81-5c-5.38,0-5.19,6.21-5.19,6.21s.61,4.88,5.19,4.88A5.75,5.75,0,0,0,137.88,80.53Z" transform="translate(-6.56 -23.76)"/><polygon points="137.23 41.53 141.53 37.9 143.48 37.9 143.48 54.89 137.75 48.77 137.23 41.53"/><path fill="#fff" d="M41.86,77.49a8,8,0,0,0,2.8-6.38c0-7.74-7.91-9.45-7.91-9.45H8.52V73.41h3.91V84.8H8.52V97.28H36c7,0,10.29-6.78,10.29-11.71S41.86,77.49,41.86,77.49ZM31.14,84.65H25.63V73.53H30.1a2.25,2.25,0,0,1,2,2.5c0,2.2-2.75,3.06-2.75,3.06S33,79.09,33,82C33,84.53,31.14,84.65,31.14,84.65Z" transform="translate(-6.56 -23.76)"/><polygon points="44.56 8.02 62.93 1.2 62.93 25.35 68.14 25.35 68.14 37.9 44.56 37.9 44.56 25.25 49.86 25.25 49.86 17.02 44.56 17.02 44.56 8.02"/><path fill="#fff" d="M92.14,60.72a18.48,18.48,0,1,1,18.47-18.48A18.5,18.5,0,0,1,92.14,60.72Zm0-35.11a16.63,16.63,0,1,0,16.62,16.63A16.65,16.65,0,0,0,92.14,25.61Z" transform="translate(-6.56 -23.76)"/><path fill="#fff" d="M88.57,25.05s-6.33,8.24-6,11.12,1.39,3.75,1.39,4.32-3.26,4-3.21,5.28,1.39,1.78,1.39,2.35-1,1.49-1,2,.88.77.8,1.2-.8,1.11-.61,1.44S83,54.6,82.34,55.8s8.81,6.66,13.86,3.52,9.2-1.6,13.42-15.47S91.21,21.9,88.57,25.05Z" transform="translate(-6.56 -23.76)"/><path fill="#fff" d="M131,60.72a18.48,18.48,0,1,1,18.48-18.48A18.5,18.5,0,0,1,131,60.72Zm0-35.11a16.63,16.63,0,1,0,16.63,16.63A16.65,16.65,0,0,0,131,25.61Z" transform="translate(-6.56 -23.76)"/><path fill="#fff" d="M127.47,25.05s-6.33,8.24-6,11.12,1.39,3.75,1.39,4.32-3.26,4-3.22,5.28,1.4,1.78,1.4,2.35-1,1.49-1,2,.88.77.8,1.2-.8,1.11-.61,1.44,1.68,1.87,1.06,3.07,8.81,6.66,13.86,3.52,9.2-1.6,13.41-15.47S130.1,21.9,127.47,25.05Z" transform="translate(-6.56 -23.76)"/><path fill="#fff" d="M8,158A5.38,5.38,0,0,1,6.56,154,5.57,5.57,0,0,1,8,150a5.14,5.14,0,0,1,3.86-1.49A5.11,5.11,0,0,1,15.72,150a5.52,5.52,0,0,1,1.43,4A5.34,5.34,0,0,1,15.72,158a5.17,5.17,0,0,1-3.87,1.45A5.19,5.19,0,0,1,8,158Zm5.72-1.63a3.7,3.7,0,0,0,.63-2.33,3.82,3.82,0,0,0-.63-2.38,2.22,2.22,0,0,0-1.86-.82,2.18,2.18,0,0,0-1.85.82A3.82,3.82,0,0,0,9.37,154a3.7,3.7,0,0,0,.63,2.33,2.23,2.23,0,0,0,1.85.8A2.26,2.26,0,0,0,13.71,156.34Z" transform="translate(-6.56 -23.76)"/><path fill="#fff" d="M22.23,150.72v8.44H19.5v-8.44H18v-1.91H19.5v-.87a2.89,2.89,0,0,1,.8-2.23,3.47,3.47,0,0,1,2.41-.73,9.77,9.77,0,0,1,1.28.07v2.18h-.86c-.37,0-.61.07-.72.22a1.49,1.49,0,0,0-.18.89v.47H24v1.91Z" transform="translate(-6.56 -23.76)"/><path fill="#fff" d="M35.72,159.21q-.69.06-1.68.06a3.25,3.25,0,0,1-2.08-.52,2.07,2.07,0,0,1-.63-1.7v-6.33H29.89v-1.91h1.44V146h2.73v2.79h1.66v1.91H34.06v5.88c0,.24.07.4.21.47a2.12,2.12,0,0,0,.89.12h.56Z" transform="translate(-6.56 -23.76)"/><path fill="#fff" d="M37.45,145.17h2.73v5l.22-.31a3.51,3.51,0,0,1,2.93-1.28,3.35,3.35,0,0,1,2.56,1,3.73,3.73,0,0,1,.93,2.69v7H44.09v-6.47a2.14,2.14,0,0,0-.41-1.43,1.66,1.66,0,0,0-1.27-.46,2.09,2.09,0,0,0-1.65.65,2.69,2.69,0,0,0-.58,1.87v5.84H37.45Z" transform="translate(-6.56 -23.76)"/><path fill="#fff" d="M53.45,159.42A4.6,4.6,0,0,1,49.81,158a6.12,6.12,0,0,1-1.28-4.15,5.5,5.5,0,0,1,1.31-3.89,4.7,4.7,0,0,1,3.61-1.4A4.65,4.65,0,0,1,57.1,150,6,6,0,0,1,58.38,154a2.2,2.2,0,0,1-.05.62h-7a3.6,3.6,0,0,0,.55,1.83,2.21,2.21,0,0,0,1.9.76,2,2,0,0,0,1.14-.35,1.34,1.34,0,0,0,.64-.85h2.78a4,4,0,0,1-1.64,2.48A5.49,5.49,0,0,1,53.45,159.42Zm2.09-6.5a2.86,2.86,0,0,0-.5-1.46,1.91,1.91,0,0,0-1.63-.69,1.82,1.82,0,0,0-1.6.8,3.56,3.56,0,0,0-.5,1.35Z" transform="translate(-6.56 -23.76)"/><path fill="#fff" d="M65.82,145.17h6.77a4.83,4.83,0,0,1,3.17.94,3.17,3.17,0,0,1,1.14,2.6,3,3,0,0,1-1.75,2.92,4.29,4.29,0,0,1,.88.46,3.06,3.06,0,0,1,1.34,2.69A4,4,0,0,1,76,158a5.91,5.91,0,0,1-3.88,1.12H65.82Zm2.8,5.48H72a2.65,2.65,0,0,0,1.63-.41,1.44,1.44,0,0,0,.54-1.23,1.17,1.17,0,0,0-.57-1.07,3.27,3.27,0,0,0-1.72-.36H68.62Zm0,6.08h3.54a2.56,2.56,0,0,0,1.72-.49,1.88,1.88,0,0,0,.57-1.5,1.53,1.53,0,0,0-.59-1.31,3,3,0,0,0-1.75-.43H68.62Z" transform="translate(-6.56 -23.76)"/><path fill="#fff" d="M82.15,159.42a3.25,3.25,0,0,1-2.31-.82,2.84,2.84,0,0,1-.87-2.16,3.17,3.17,0,0,1,.79-2.27,3.69,3.69,0,0,1,2.3-1.07l1.8-.25a3.8,3.8,0,0,0,1.17-.32.72.72,0,0,0,.31-.35,1,1,0,0,0,.08-.5A1,1,0,0,0,85,151a2.59,2.59,0,0,0-1.34-.29,1.82,1.82,0,0,0-1.22.38,1.43,1.43,0,0,0-.47,1.07H79.33a3.48,3.48,0,0,1,1.23-2.72,5.43,5.43,0,0,1,3.38-.9,5.09,5.09,0,0,1,3,.81,2.61,2.61,0,0,1,1.12,2.23v5.79a3,3,0,0,0,.11,1,.88.88,0,0,0,.46.45h0v.37h-3a7,7,0,0,1-.24-1.23v0A4.12,4.12,0,0,1,82.15,159.42Zm3.29-4.09v-1.19a4.5,4.5,0,0,1-1.26.43l-1,.19a2.05,2.05,0,0,0-1.08.49,1.19,1.19,0,0,0-.37.9,1.36,1.36,0,0,0,.33,1,1.23,1.23,0,0,0,.93.35,2.6,2.6,0,0,0,2.09-.92,1.38,1.38,0,0,0,.26-.53A2.48,2.48,0,0,0,85.44,155.33Z" transform="translate(-6.56 -23.76)"/><path fill="#fff" d="M96,159.37a10.25,10.25,0,0,1-1.53,3.29,3.11,3.11,0,0,1-2.27.66l-1.31,0v-2.18a2.63,2.63,0,0,0,.53,0c.72,0,1.2-.14,1.42-.44a3.73,3.73,0,0,0,.42-1.18l-3.86-10.71h3l2.26,7.67h0l2.19-7.67h2.85Z" transform="translate(-6.56 -23.76)"/><path fill="#fff" d="M110.83,145.17h3.38l5,14h-3.1l-.94-2.85h-5.31l-.91,2.85h-3Zm-.21,8.73h3.71l-1.85-5.62h0Z" transform="translate(-6.56 -23.76)"/><path fill="#fff" d="M120.8,148.81h2.6v1.85a4.91,4.91,0,0,1,.33-.59,2.84,2.84,0,0,1,2.48-1.54h.62v2.79a6.82,6.82,0,0,0-.82,0,2.49,2.49,0,0,0-1.86.62,2.54,2.54,0,0,0-.62,1.87v5.38H120.8Z" transform="translate(-6.56 -23.76)"/><path fill="#fff" d="M132.51,159.42a4.57,4.57,0,0,1-3.64-1.45,6.06,6.06,0,0,1-1.28-4.15,5.49,5.49,0,0,1,1.3-3.89,4.71,4.71,0,0,1,3.62-1.4,4.64,4.64,0,0,1,3.64,1.43,5.91,5.91,0,0,1,1.28,4.08,2.18,2.18,0,0,1,0,.62h-7a3.51,3.51,0,0,0,.54,1.83,2.21,2.21,0,0,0,1.9.76,2,2,0,0,0,1.15-.35,1.36,1.36,0,0,0,.63-.85h2.78a4,4,0,0,1-1.63,2.48A5.51,5.51,0,0,1,132.51,159.42Zm2.08-6.5a2.77,2.77,0,0,0-.5-1.46,1.89,1.89,0,0,0-1.62-.69,1.84,1.84,0,0,0-1.61.8,3.56,3.56,0,0,0-.49,1.35Z" transform="translate(-6.56 -23.76)"/><path fill="#fff" d="M141.72,159.42a3.25,3.25,0,0,1-2.31-.82,2.84,2.84,0,0,1-.87-2.16,3.17,3.17,0,0,1,.79-2.27,3.69,3.69,0,0,1,2.3-1.07l1.8-.25a3.8,3.8,0,0,0,1.17-.32.72.72,0,0,0,.31-.35,1,1,0,0,0,.08-.5,1,1,0,0,0-.45-.69,2.59,2.59,0,0,0-1.34-.29,1.82,1.82,0,0,0-1.22.38,1.43,1.43,0,0,0-.47,1.07H138.9a3.51,3.51,0,0,1,1.23-2.72,5.43,5.43,0,0,1,3.38-.9,5.09,5.09,0,0,1,3.05.81,2.61,2.61,0,0,1,1.12,2.23v5.79a3,3,0,0,0,.11,1,.88.88,0,0,0,.46.45h0v.37H145.3a7,7,0,0,1-.24-1.23v0A4.12,4.12,0,0,1,141.72,159.42Zm3.29-4.09v-1.19a4.5,4.5,0,0,1-1.26.43l-1,.19a2.05,2.05,0,0,0-1.08.49,1.19,1.19,0,0,0-.37.9,1.36,1.36,0,0,0,.33,1,1.23,1.23,0,0,0,.93.35,2.6,2.6,0,0,0,2.09-.92,1.38,1.38,0,0,0,.26-.53A2.48,2.48,0,0,0,145,155.33Z" transform="translate(-6.56 -23.76)"/><path fill="#fff" d="M150.06,157.74v-1.42H153v2.45a3.76,3.76,0,0,1-.72,2.41,3.84,3.84,0,0,1-2.2,1.26v-1.05a2.2,2.2,0,0,0,1.32-1,3,3,0,0,0,.29-1.26h-1.61Z" transform="translate(-6.56 -23.76)"/><path fill="#fff" d="M160.88,145.17h2.92v14h-2.92Z" transform="translate(-6.56 -23.76)"/><path fill="#fff" d="M166.31,148.81h2.6v1.53c.11-.19.23-.36.35-.53a3.53,3.53,0,0,1,2.93-1.28,3.38,3.38,0,0,1,2.57,1,3.72,3.72,0,0,1,.92,2.69v7H173v-6.47a2.09,2.09,0,0,0-.41-1.43,1.66,1.66,0,0,0-1.27-.46,2.09,2.09,0,0,0-1.65.65,2.74,2.74,0,0,0-.58,1.87v5.84h-2.73Z" transform="translate(-6.56 -23.76)"/><path fill="#fff" d="M187.16,155.32a4.49,4.49,0,0,1-1.44,3,5.33,5.33,0,0,1-6.82-.32,5.65,5.65,0,0,1-1.28-4,5.83,5.83,0,0,1,1.32-4,4.57,4.57,0,0,1,3.58-1.49,4.85,4.85,0,0,1,3.28,1.1,4,4,0,0,1,1.36,2.91h-2.78a1.77,1.77,0,0,0-.55-1.25,1.82,1.82,0,0,0-1.31-.48,1.76,1.76,0,0,0-1.56.83,4.37,4.37,0,0,0-.54,2.4,4.17,4.17,0,0,0,.54,2.34,1.76,1.76,0,0,0,1.56.81,1.68,1.68,0,0,0,1.26-.52,2.17,2.17,0,0,0,.6-1.35Z" transform="translate(-6.56 -23.76)"/><path fill="#fff" d="M189,156.32H192v2.84H189Z" transform="translate(-6.56 -23.76)"/></svg>
